<svg xmlns="http://www.w3.org/2000/svg" width="83" height="71" viewBox="0 0 83 71">
  <g fill="none" fill-rule="evenodd" transform="translate(0 1)">
    <rect width="6" height="34" x="7.5" y="24.5" stroke="#0898FF"/>
    <rect width="6" height="34" x="55.5" y="24.5" stroke="#0898FF"/>
    <rect width="6" height="34" x="19.5" y="24.5" stroke="#0898FF"/>
    <rect width="6" height="34" x="43.5" y="24.5" stroke="#0898FF"/>
    <rect width="6" height="34" x="31.5" y="24.5" stroke="#0898FF"/>
    <rect width="62" height="5" x="3.5" y="58.5" stroke="#0898FF"/>
    <rect width="69" height="6" x=".5" y="63.5" stroke="#0898FF"/>
    <rect width="69" height="6" x=".5" y="18.5" stroke="#0898FF"/>
    <polygon stroke="#0898FF" points="1 18.5 36.055 0 71.286 18.5"/>
    <circle cx="62.5" cy="20.5" r="19.5" fill="#FFF" stroke="#FF6B6C"/>
    <path stroke="#FF6B6C" d="M59.796,29.3426113 L65.448,29.3426113 L65.448,34.8866113 L59.796,34.8866113 L59.796,29.3426113 Z M54,15.892 C54.0240001,14.5959935 54.2459979,13.4080054 54.666,12.328 C55.0860021,11.2479946 55.6739962,10.312004 56.43,9.52 C57.1860038,8.72799604 58.0979947,8.11000222 59.166,7.666 C60.2340053,7.22199778 61.4279934,7 62.748,7 C64.4520085,7 65.8739943,7.23399766 67.014,7.702 C68.1540057,8.17000234 69.0719965,8.75199652 69.768,9.448 C70.4640035,10.1440035 70.9619985,10.893996 71.262,11.698 C71.5620015,12.502004 71.712,13.2519965 71.712,13.948 C71.712,15.1000058 71.5620015,16.0479963 71.262,16.792 C70.9619985,17.5360037 70.5900022,18.1719974 70.146,18.7 C69.7019978,19.2280026 69.2100027,19.6779981 68.67,20.05 C68.1299973,20.4220019 67.6200024,20.7939981 67.14,21.166 C66.6599976,21.5380019 66.2340019,21.9639976 65.862,22.444 C65.4899981,22.9240024 65.2560005,23.5239964 65.16,24.244 L65.16,25.612 L60.3,25.612 L60.3,23.992 C60.3720004,22.9599948 60.5699984,22.0960035 60.894,21.4 C61.2180016,20.7039965 61.5959978,20.1100025 62.028,19.618 C62.4600022,19.1259975 62.9159976,18.7000018 63.396,18.34 C63.8760024,17.9799982 64.319998,17.6200018 64.728,17.26 C65.136002,16.8999982 65.4659987,16.5040022 65.718,16.072 C65.9700013,15.6399978 66.0840001,15.1000032 66.06,14.452 C66.06,13.3479945 65.7900027,12.5320026 65.25,12.004 C64.7099973,11.4759974 63.9600048,11.212 63,11.212 C62.3519968,11.212 61.7940023,11.3379987 61.326,11.59 C60.8579977,11.8420013 60.4740015,12.1779979 60.174,12.598 C59.8739985,13.0180021 59.6520007,13.5099972 59.508,14.074 C59.3639993,14.6380028 59.292,15.2439968 59.292,15.892 L54,15.892 Z"/>
  </g>
</svg>
